<?xml version="1.0" encoding="UTF-8"?>
<svg id="Camada_2" data-name="Camada 2" xmlns="http://www.w3.org/2000/svg" viewBox="0 0 492.41 470.24">
  <defs>
    <style>
      .cls-1 {
        fill: #f22f25;
      }
    </style>
  </defs>
  <g id="Camada_1-2" data-name="Camada 1">
    <g>
      <path class="cls-1" d="M194.31,177.43c-5.66-19.72-31.82-24.79-44.8-8.9-57.7,70.63-62.56,188.89,2.5,255.8,105.28,108.29,267.16,7.36,294.18-120.03,19.72-92.95-10.82-179.37-65-250.9-15.93-21.03-49.81-7.44-46.42,18.72.2,1.57.38,3.15.52,4.73,2.75,30.85.35,56.94-10.98,85.88-31.56,80.65-111.68,78.53-130,14.69Z"/>
      <path class="cls-1" d="M35.7,253.79c7.34,5.95,18.29,1.89,20.11-7.38,8.35-42.51,62.74-67.07,72.77-109.57C141.53,81.96,103.58,33.12,58.61,2.27c-10.98-7.53-24.56,5.1-17.84,16.6h0C65.28,84.15-8.14,129.01.75,193.61c3.29,23.89,16.45,45.21,34.95,60.18Z"/>
      <path class="cls-1" d="M480.74,152.97c-.04.08-.09.16-.13.24-5.33,9.71-19.98,7.54-22.81-3.16-7.35-27.82-18.73-54.5-33.21-79.74-3.59-6.27-4.17-13.81-1.68-20.59,2.95-8.03,4.66-16.67,4.66-26.18,0-2.43-.1-4.96-.35-7.55-3.43-12.86,13.01-21.45,21.6-11.27,35.2,41.6,58.93,98.75,31.92,148.24Z"/>
    </g>
  </g>
</svg>