<svg width="120" height="120" viewBox="0 0 120 120" fill="none" xmlns="http://www.w3.org/2000/svg">
<g clip-path="url(#clip0_142_40)">
<mask id="mask0_142_40" style="mask-type:luminance" maskUnits="userSpaceOnUse" x="0" y="0" width="120" height="120">
<path d="M120 0H0V120H120V0Z" fill="white"/>
</mask>
<g mask="url(#mask0_142_40)">
<path d="M35.2607 80.6507C46.3059 80.6507 55.2613 89.46 55.2613 100.325C55.2611 111.19 46.3057 120 35.2607 120C24.2155 120 15.2602 111.189 15.26 100.325C15.26 89.46 24.2153 80.6507 35.2607 80.6507ZM84.7433 80.6507C95.7887 80.6507 104.744 89.46 104.744 100.325C104.743 111.19 95.788 120 84.7433 120C73.6987 120 64.7426 111.19 64.7425 100.325C64.7425 89.46 73.698 80.6507 84.7433 80.6507ZM19.9969 32.472C31.0423 32.472 39.9975 41.2815 39.9975 52.1465H40.0013C40.0011 63.0115 31.0459 71.8193 20.0006 71.8193C8.95547 71.8193 0.000171039 63.0115 0 52.1465C0 41.2815 8.95167 32.472 19.9969 32.472ZM99.9993 32.472C111.045 32.472 120 41.2815 120 52.1465C120 63.0115 111.045 71.8193 99.9993 71.8193C88.954 71.8193 79.9987 63.0115 79.9987 52.1465C79.9987 41.2817 88.954 32.472 99.9993 32.472ZM59.9689 0C71.0153 0 79.9693 8.80887 79.9693 19.6747C79.9693 30.5404 71.0153 39.3493 59.9689 39.3493C48.9229 39.3493 39.9685 30.5404 39.9683 19.6747C39.9683 8.80893 48.9227 0.000115163 59.9689 0Z" fill="white"/>
</g>
</g>
<defs>
<clipPath id="clip0_142_40">
<rect width="120" height="120" fill="white"/>
</clipPath>
</defs>
</svg>
